<?xml version="1.0" standalone="no"?>
<!DOCTYPE svg PUBLIC "-//W3C//DTD SVG 20010904//EN"
 "http://www.w3.org/TR/2001/REC-SVG-20010904/DTD/svg10.dtd">
<svg version="1.0" xmlns="http://www.w3.org/2000/svg"
 width="0.000000pt" height="0.000000pt" viewBox="0 0 300.000000 300.000000"
 preserveAspectRatio="xMidYMid meet">
<metadata>
Created by potrace 1.10, written by Peter Selinger 2001-2011
</metadata>
<g transform="translate(0.000000,300.000000) scale(0.100000,-0.100000)"
fill="#FFFFFF" stroke="none">
<path d="M1128 1715 c-43 -7 -136 -32 -207 -54 -102 -33 -152 -43 -230 -48
-56 -3 -101 -8 -101 -10 0 -2 7 -18 16 -35 19 -36 13 -77 -16 -118 -33 -46
-25 -143 14 -183 16 -16 125 -52 133 -44 2 3 -19 13 -47 22 -37 12 -57 26 -71
49 -23 37 -25 108 -5 126 25 20 49 106 37 129 -6 11 -11 22 -11 24 0 2 39 7
88 10 62 4 122 18 207 46 234 76 489 90 660 35 28 -9 101 -40 163 -70 97 -46
125 -54 210 -64 207 -24 327 -52 390 -90 41 -26 48 -43 34 -94 -6 -24 -7 -47
-1 -57 10 -19 -13 -29 -68 -29 -30 0 -33 3 -39 40 -26 159 -217 226 -327 114
-16 -15 -33 -37 -38 -49 -7 -14 -4 -13 13 6 39 45 88 69 143 69 92 0 168 -73
171 -164 l2 -51 74 4 c40 2 79 7 87 11 17 9 25 163 10 192 -13 25 -110 72
-191 92 -36 9 -131 25 -210 35 -118 15 -154 24 -208 50 -206 102 -280 121
-465 120 -77 -1 -175 -7 -217 -14z"/>
<path d="M1032 1615 c2 -11 22 -30 48 -44 40 -23 57 -25 209 -29 186 -5 214 3
46 13 -176 10 -267 32 -298 70 -5 6 -7 1 -5 -10z"/>
<path d="M1527 1598 c-9 -18 -37 -69 -62 -113 -69 -123 -59 -202 32 -246 106
-51 218 47 184 162 -12 40 -120 228 -132 229 -3 0 -13 -15 -22 -32z m81 -116
c54 -90 60 -127 30 -172 -33 -48 -56 -49 -104 -2 -42 42 -69 107 -57 138 9 25
55 97 67 106 15 10 20 4 64 -70z m-141 -106 c1 -43 23 -75 66 -98 31 -17 31
-17 7 -18 -54 0 -104 65 -93 123 7 38 19 34 20 -7z"/>
<path d="M892 1460 c-37 -9 -86 -51 -107 -90 -21 -41 -27 -70 -16 -70 6 0 11
7 11 16 0 28 39 81 73 101 67 40 139 35 196 -12 38 -33 51 -32 20 1 -45 48
-114 69 -177 54z"/>
</g>
</svg>
