<svg width="100%" height="100%" id="svg" viewBox="0 0 1440 690" xmlns="http://www.w3.org/2000/svg" class="transition duration-300 ease-in-out delay-150"><path d="M 0,700 L 0,175 C 55.953395543101834,147.67151523963096 111.90679108620367,120.34303047926193 158,136 C 204.09320891379633,151.65696952073807 240.32623119828708,210.29939332258323 286,255 C 331.6737688017129,299.7006066774168 386.7882841206482,330.4593962304052 429,356 C 471.2117158793518,381.5406037695948 500.5206323191202,401.86302175579584 554,395 C 607.4793676808798,388.13697824420416 685.1291866028708,354.0885167464115 739,398 C 792.8708133971292,441.9114832535885 822.9626212693964,563.7829112585582 869,600 C 915.0373787306036,636.2170887414418 977.0203283195433,586.7798382193555 1033,568 C 1088.9796716804567,549.2201617806445 1138.9560654524307,561.0977358640197 1177,620 C 1215.0439345475693,678.9022641359803 1241.155409870734,784.8292183245658 1283,831 C 1324.844590129266,877.1707816754342 1382.422295064633,863.5853908377171 1440,850 L 1440,700 L 0,700 Z" stroke="none" stroke-width="0" fill="#2b6df8" fill-opacity="0.53" class="transition-all duration-300 ease-in-out delay-150 path-0"></path><path d="M 0,700 L 0,408 C 44.723955166671075,444.0931230008723 89.44791033334215,480.1862460017447 136,489 C 182.55208966665785,497.8137539982553 230.9323138333025,479.3481389938936 280,495 C 329.0676861666975,510.6518610061064 378.8228343334478,560.4211980226811 433,587 C 487.1771656665522,613.5788019773189 545.776348832906,616.9670689153825 585,614 C 624.223651167094,611.0329310846175 644.0717703349283,601.7105263157894 696,649 C 747.9282296650717,696.2894736842106 831.9365698273812,800.1908258214597 885,841 C 938.0634301726188,881.8091741785403 960.1819503555475,859.5261703983715 998,882 C 1035.8180496444525,904.4738296016285 1089.3356287504296,971.7044925850539 1139,994 C 1188.6643712495704,1016.2955074149461 1234.4755346427346,993.6558592614132 1284,1001 C 1333.5244653572654,1008.3441407385868 1386.7622326786327,1045.6720703692934 1440,1083 L 1440,700 L 0,700 Z" stroke="none" stroke-width="0" fill="#2b6df8" fill-opacity="1" class="transition-all duration-300 ease-in-out delay-150 path-1"></path></svg>