<?xml version="1.0" standalone="no"?><svg xmlns="http://www.w3.org/2000/svg" viewBox="0 0 1440 320"><path fill="#2b6df8" fill-opacity="1" d="M0,128L6.2,144C12.3,160,25,192,37,186.7C49.2,181,62,139,74,122.7C86.2,107,98,117,111,106.7C123.1,96,135,64,148,90.7C160,117,172,203,185,213.3C196.9,224,209,160,222,117.3C233.8,75,246,53,258,42.7C270.8,32,283,32,295,48C307.7,64,320,96,332,90.7C344.6,85,357,43,369,69.3C381.5,96,394,192,406,202.7C418.5,213,431,139,443,138.7C455.4,139,468,213,480,245.3C492.3,277,505,267,517,224C529.2,181,542,107,554,96C566.2,85,578,139,591,181.3C603.1,224,615,256,628,261.3C640,267,652,245,665,202.7C676.9,160,689,96,702,101.3C713.8,107,726,181,738,218.7C750.8,256,763,256,775,240C787.7,224,800,192,812,165.3C824.6,139,837,117,849,117.3C861.5,117,874,139,886,154.7C898.5,171,911,181,923,186.7C935.4,192,948,192,960,170.7C972.3,149,985,107,997,106.7C1009.2,107,1022,149,1034,160C1046.2,171,1058,149,1071,144C1083.1,139,1095,149,1108,181.3C1120,213,1132,267,1145,250.7C1156.9,235,1169,149,1182,117.3C1193.8,85,1206,107,1218,106.7C1230.8,107,1243,85,1255,69.3C1267.7,53,1280,43,1292,42.7C1304.6,43,1317,53,1329,74.7C1341.5,96,1354,128,1366,165.3C1378.5,203,1391,245,1403,250.7C1415.4,256,1428,224,1434,208L1440,192L1440,320L1433.8,320C1427.7,320,1415,320,1403,320C1390.8,320,1378,320,1366,320C1353.8,320,1342,320,1329,320C1316.9,320,1305,320,1292,320C1280,320,1268,320,1255,320C1243.1,320,1231,320,1218,320C1206.2,320,1194,320,1182,320C1169.2,320,1157,320,1145,320C1132.3,320,1120,320,1108,320C1095.4,320,1083,320,1071,320C1058.5,320,1046,320,1034,320C1021.5,320,1009,320,997,320C984.6,320,972,320,960,320C947.7,320,935,320,923,320C910.8,320,898,320,886,320C873.8,320,862,320,849,320C836.9,320,825,320,812,320C800,320,788,320,775,320C763.1,320,751,320,738,320C726.2,320,714,320,702,320C689.2,320,677,320,665,320C652.3,320,640,320,628,320C615.4,320,603,320,591,320C578.5,320,566,320,554,320C541.5,320,529,320,517,320C504.6,320,492,320,480,320C467.7,320,455,320,443,320C430.8,320,418,320,406,320C393.8,320,382,320,369,320C356.9,320,345,320,332,320C320,320,308,320,295,320C283.1,320,271,320,258,320C246.2,320,234,320,222,320C209.2,320,197,320,185,320C172.3,320,160,320,148,320C135.4,320,123,320,111,320C98.5,320,86,320,74,320C61.5,320,49,320,37,320C24.6,320,12,320,6,320L0,320Z"></path></svg>